<svg xmlns="http://www.w3.org/2000/svg" viewBox="0 0 24 24" fill="currentColor">
  <path d="M2 2v3.14q.45-.19 1-.24V3h18v4.02q.52.58.98 1.29l.02.03V2Zm20 6.34v10.52q.53-.23.93-.65.85-.91 1.03-2.52.17-1.6-.39-3.69-.55-2.07-1.57-3.66m0 10.52q-.45.19-1 .24V21H3v-4.02q-.53-.57-.99-1.29L2 15.67V22h20Zm-20-3.2V5.15q-.54.23-.95.65-.84.92-1.01 2.52T.44 12Q.98 14.07 2 15.67m1 1.32q.65.72 1.38 1.23 1.33.9 2.8.9l-.07-.2q-.6-.01-1.33-.86-.72-.86-1.43-2.4A24 24 0 0 1 3.1 12l-.1-.35Zm0-5.33V5.23q-.3.2-.46.72a7 7 0 0 0-.15 2.4q.13 1.4.61 3.3m0-6.42a1 1 0 0 1 .42-.13l-.06-.21L3 4.9zM21 19.1v-.33a1 1 0 0 1-.4.13l.05.21zm0-.33q.29-.2.45-.72.27-.86.14-2.4a20 20 0 0 0-.59-3.28zm0-6.4V7.02q-.65-.72-1.4-1.23-1.32-.9-2.76-.9l.05.2q.6.01 1.31.86.75.85 1.43 2.4.7 1.52 1.28 3.65zM10.8 4.89q-1.47 0-2.56.9a6 6 0 0 0-1.68 2.52q-.6 1.6-.6 3.69t.6 3.7 1.68 2.5q1.1.91 2.56.91v-.2q-.6-.01-1.11-.86a8 8 0 0 1-.79-2.4A21 21 0 0 1 8.62 12q0-2.13.28-3.65.3-1.54.79-2.4t1.1-.85Zm2.41 0v.2q.6.01 1.08.86.5.85.79 2.4.3 1.52.3 3.65 0 2.1-.3 3.65a7 7 0 0 1-.79 2.4q-.48.85-1.08.85v.21q1.44 0 2.53-.9 1.1-.91 1.7-2.52t.6-3.69-.6-3.7a6 6 0 0 0-1.7-2.5q-1.09-.91-2.53-.91m-1.2 5.22-.3 1.2-1.04-.64.64 1.04-1.2.29 1.2.29-.64 1.04 1.04-.63.3 1.19.28-1.2 1.05.64-.64-1.04 1.2-.29-1.2-.29.64-1.04-1.05.63z" />
</svg>
