<svg viewBox="0 0 24 24" fill="currentColor" xmlns="http://www.w3.org/2000/svg">
<path
	d="M12 2a10 10 0 0 0-2 .202v2.052a8 8 0 0 0-2.063.854l-1.45-1.45a10 10 0 0 0-2.83 2.828l1.451 1.451A8 8 0 0 0 4.254 10H2.202A10 10 0 0 0 2 12a10 10 0 0 0 .202 2h2.052a8 8 0 0 0 .854 2.063l-1.45 1.45a10 10 0 0 0 2.828 2.83l1.451-1.452a8 8 0 0 0 2.063.855v2.052A10 10 0 0 0 12 22a10 10 0 0 0 2-.202v-2.052a8 8 0 0 0 2.063-.855l1.451 1.451a10 10 0 0 0 2.828-2.828l-1.45-1.45A8 8 0 0 0 19.745 14h2.052A10 10 0 0 0 22 12a10 10 0 0 0-.202-2h-2.052a8 8 0 0 0-.855-2.063l1.451-1.451a10 10 0 0 0-2.828-2.828l-1.45 1.45h-.001A8 8 0 0 0 14 4.254V2.202A10 10 0 0 0 12 2m0 6 .828.909L14 8.536l.263 1.201 1.201.263-.373 1.172.91.828-.91.828.373 1.172-1.201.263L14 15.464l-1.172-.373-.828.91-.828-.91-1.172.373-.263-1.201L8.536 14l.373-1.172L8 12l.909-.828L8.536 10l1.201-.263L10 8.536l1.172.373Z" />
</svg>